<?xml version="1.0" encoding="UTF-8"?><svg id="_层_1" xmlns="http://www.w3.org/2000/svg" viewBox="0 0 88.3 82.73"><defs><style>.cls-1{fill:#111;}.cls-2{fill:#efefef;}</style></defs><rect class="cls-2" width="88.3" height="82.73"/><g><path class="cls-1" d="M51.95,32.12c-7.2-3.34-7.62-8.45,1.73-10.36,10.72-2.2,26.7,2.05,26.7,2.05l-3.18-16.4h-23.51c-14.15,0-20.59,1.25-25.65,6.45-3.48,3.57-4.51,7.57-4.76,9.77-.27,2.42-.27,8.3,6.7,11.8,.08,.04,4.39,2.75,22.64,5.68,12.53,2.02,17.73,6.38,18.12,8.25-.3-2.48-1.33-4.8-3.04-6.75-3.86-4.45-7.95-6.86-15.76-10.48h0Z"/><path class="cls-1" d="M70.75,49.35c-2.06-2.91-6.66-4.56-11.53-5.53-5.73-1.14-11.82-1.32-14.54-1.47,.33,.22,.96,.74,.96,.74,1.15,1.07,1.94,2.59,1.75,4.34-.29,2.63-2.34,6.35-10.51,7-13.43,1.08-25.78-2.37-28.95-4.03l8.32,25.85s9.32,.7,26.45-2.72c21.01-4.19,29.12-15.44,28.07-24.19h0Z"/></g></svg>