<?xml version="1.0" standalone="no"?>
<!DOCTYPE svg PUBLIC "-//W3C//DTD SVG 20010904//EN"
 "http://www.w3.org/TR/2001/REC-SVG-20010904/DTD/svg10.dtd">
<svg version="1.0" xmlns="http://www.w3.org/2000/svg"
 width="100.000000pt" height="100.000000pt" viewBox="0 0 100.000000 100.000000"
 preserveAspectRatio="xMidYMid meet">
<metadata>
Created by potrace 1.14, written by Peter Selinger 2001-2017
</metadata>
<g transform="translate(0.000000,100.000000) scale(0.100000,-0.100000)"
fill="#000000" stroke="none">
<path d="M450 859 c-94 -18 -160 -93 -160 -181 0 -90 48 -121 253 -163 127
-26 185 -42 201 -56 5 -4 -12 -2 -37 6 -25 7 -78 17 -118 21 l-71 7 16 -26
c16 -23 16 -28 2 -55 -23 -45 -68 -56 -200 -49 -61 3 -133 12 -161 21 -27 8
-50 14 -51 13 -2 -1 18 -65 43 -141 l45 -139 87 7 c270 20 456 105 492 225 26
88 -21 162 -144 226 -86 45 -107 62 -107 86 0 51 136 73 283 46 l79 -14 -7 36
c-3 20 -10 60 -16 89 l-10 52 -187 -1 c-103 -1 -207 -5 -232 -10z"/>
</g>
</svg>
